<svg xmlns="http://www.w3.org/2000/svg" width="32" height="62" viewBox="0 0 32 62"><title>icon-4</title><path fill="#505977" d="M27 30H5c-2.8 0-5-2.2-5-5V5c0-2.8 2.2-5 5-5h22c2.8 0 5 2.2 5 5v20c0 2.8-2.2 5-5 5zm3-25c0-1.7-1.3-3-3-3H5C3.3 2 2 3.3 2 5v20c0 1.7 1.3 3 3 3h22c1.7 0 3-1.3 3-3V5zm-5 11h-1v7c0 .6-.4 1-1 1s-1-.4-1-1v-7h-1c-.6 0-1-.4-1-1s.4-1 1-1h1V7c0-.6.4-1 1-1s1 .4 1 1v7h1c.6 0 1 .4 1 1s-.4 1-1 1zm-7-4h-1v11c0 .6-.4 1-1 1s-1-.4-1-1V12h-1c-.6 0-1-.4-1-1s.4-1 1-1h1V7c0-.6.4-1 1-1s1 .4 1 1v3h1c.6 0 1 .4 1 1s-.4 1-1 1zm-7 7h-1v4c0 .6-.4 1-1 1s-1-.4-1-1v-4H7c-.6 0-1-.4-1-1s.4-1 1-1h1V7c0-.6.4-1 1-1s1 .4 1 1v10h1c.6 0 1 .4 1 1s-.4 1-1 1z"/><path fill="#FFF" d="M27 62H5c-2.8 0-5-2.2-5-5V37c0-2.8 2.2-5 5-5h22c2.8 0 5 2.2 5 5v20c0 2.8-2.2 5-5 5zm3-25c0-1.7-1.3-3-3-3H5c-1.7 0-3 1.3-3 3v20c0 1.7 1.3 3 3 3h22c1.7 0 3-1.3 3-3V37zm-5 11h-1v7c0 .6-.4 1-1 1s-1-.4-1-1v-7h-1c-.6 0-1-.4-1-1s.4-1 1-1h1v-7c0-.6.4-1 1-1s1 .4 1 1v7h1c.6 0 1 .4 1 1s-.4 1-1 1zm-7-4h-1v11c0 .6-.4 1-1 1s-1-.4-1-1V44h-1c-.6 0-1-.4-1-1s.4-1 1-1h1v-3c0-.6.4-1 1-1s1 .4 1 1v3h1c.6 0 1 .4 1 1s-.4 1-1 1zm-7 7h-1v4c0 .6-.4 1-1 1s-1-.4-1-1v-4H7c-.6 0-1-.4-1-1s.4-1 1-1h1V39c0-.6.4-1 1-1s1 .4 1 1v10h1c.6 0 1 .4 1 1s-.4 1-1 1z"/></svg>