<svg xmlns="http://www.w3.org/2000/svg" width="32" height="62" viewBox="0 0 32 62"><title>icon-2</title><path fill="#505977" d="M31 30H1c-.6 0-1-.4-1-1V6c0-.6.4-1 1-1h9.1c.5-2.8 2.9-5 5.9-5s5.4 2.2 5.9 5H31c.6 0 1 .4 1 1v23c0 .6-.4 1-1 1zM16 2c-1.9 0-3.4 1.3-3.9 3h7.7c-.4-1.7-1.9-3-3.8-3zm14 5H2v6h28V7zm-15.7 8c.3.6 1 1 1.7 1s1.4-.4 1.7-1h-3.4zM30 15H19.9c-.4 1.7-2 3-3.9 3s-3.4-1.3-3.9-3H2v13h28V15z"/><path fill="#FFF" d="M31 62H1c-.6 0-1-.4-1-1V38c0-.6.4-1 1-1h9.1c.5-2.8 2.9-5 5.9-5s5.4 2.2 5.9 5H31c.6 0 1 .4 1 1v23c0 .6-.4 1-1 1zM16 34c-1.9 0-3.4 1.3-3.9 3h7.7c-.4-1.7-1.9-3-3.8-3zm14 5H2v6h28v-6zm-15.7 8c.3.6 1 1 1.7 1s1.4-.4 1.7-1h-3.4zM30 47H19.9c-.4 1.7-2 3-3.9 3s-3.4-1.3-3.9-3H2v13h28V47z"/></svg>