<svg xmlns="http://www.w3.org/2000/svg" width="32" height="64" viewBox="0 0 32 64"><title>icon-5</title><path fill="#505977" d="M31.7 4.8L19.4 17c-.6.6-1.4 1-2.2 1-.5 0-1-.1-1.4-.3l-1 1c-.2.2-.5.3-.7.3-.3 0-.5-.1-.7-.3-.4-.4-.4-1 0-1.4l1-1c-.2-.4-.3-.9-.3-1.4 0-.8.3-1.6.9-2.2L27.3.3c.4-.4 1-.4 1.4 0l3 3c.2.2.3.5.3.8 0 .2-.1.5-.3.7zM28 2.5L16.4 14c-.2.2-.3.5-.3.8s.1.6.3.8c.4.4 1.2.4 1.6 0L29.6 4.1 28 2.5zM18.1 4H5C3.4 4 2 5.4 2 7v19.9C2 28.6 3.4 30 5 30h20c1.7 0 3-1.4 3-3.1V13.8c0-.6.5-1 1-1 .6 0 1 .4 1 1V27c0 2.8-2.3 5-5 5H5c-2.8 0-5-2.2-5-5V7c0-2.8 2.3-5 5-5h13.1c.6 0 1 .4 1 1s-.4 1-1 1z"/><path fill="#FFF" d="M31.7 36.8L19.4 49c-.6.6-1.4 1-2.2 1-.5 0-1-.1-1.4-.3l-1 1c-.2.2-.5.3-.7.3-.3 0-.5-.1-.7-.3-.4-.4-.4-1 0-1.4l1-1c-.2-.4-.3-.9-.3-1.4 0-.8.3-1.6.9-2.2l12.3-12.4c.4-.4 1-.4 1.4 0l3 3c.2.2.3.5.3.8 0 .2-.1.5-.3.7zM28 34.5L16.4 46c-.2.2-.3.5-.3.8s.1.6.3.8c.4.4 1.2.4 1.6 0l11.6-11.5-1.6-1.6zM18.1 36H5c-1.6 0-3 1.4-3 3v19.9C2 60.6 3.4 62 5 62h20c1.7 0 3-1.4 3-3.1V45.8c0-.6.5-1 1-1 .6 0 1 .4 1 1V59c0 2.8-2.3 5-5 5H5c-2.8 0-5-2.2-5-5V39c0-2.8 2.3-5 5-5h13.1c.6 0 1 .4 1 1s-.4 1-1 1z"/></svg>