<svg xmlns="http://www.w3.org/2000/svg" width="32" height="60" viewBox="0 0 32 60"><title>icon-3</title><path fill="#505977" d="M27 28H5c-2.8 0-5-2.2-5-5V5c0-2.8 2.2-5 5-5h22c2.8 0 5 2.2 5 5v18c0 2.8-2.2 5-5 5zM5 26h13.8l-9.3-7.7-6.9 6.4s-.1 0-.1.1C3.1 25.5 4 26 5 26zM30 5c0-1.7-1.3-3-3-3H5C3.3 2 2 3.3 2 5v17.6l6.8-6.4c.4-.3.9-.4 1.3 0l2.3 1.9 8-7.9c.4-.4 1-.4 1.4 0L30 18V5zm0 15.7l-8.8-8.4-7.2 7.1 7.9 6.6H27c1.7 0 3-1.3 3-3v-2.3zM11 14c-2.8 0-5-2.2-5-5s2.2-5 5-5 5 2.2 5 5-2.2 5-5 5zm0-8C9.3 6 8 7.3 8 9s1.3 3 3 3 3-1.3 3-3-1.3-3-3-3z"/><path fill="#FFF" d="M27 60H5c-2.8 0-5-2.2-5-5V37c0-2.8 2.2-5 5-5h22c2.8 0 5 2.2 5 5v18c0 2.8-2.2 5-5 5zM5 58h13.8l-9.3-7.7-6.9 6.4s-.1 0-.1.1C3.1 57.5 4 58 5 58zm25-21c0-1.7-1.3-3-3-3H5c-1.7 0-3 1.3-3 3v17.6l6.8-6.4c.4-.3.9-.4 1.3 0l2.3 1.9 8-7.9c.4-.4 1-.4 1.4 0L30 50V37zm0 15.7l-8.8-8.4-7.2 7.1 7.9 6.6H27c1.7 0 3-1.3 3-3v-2.3zM11 46c-2.8 0-5-2.2-5-5s2.2-5 5-5 5 2.2 5 5-2.2 5-5 5zm0-8c-1.7 0-3 1.3-3 3s1.3 3 3 3 3-1.3 3-3-1.3-3-3-3z"/></svg>