<svg xmlns="http://www.w3.org/2000/svg" width="32" height="64" viewBox="0 0 32 64"><title>icon-1</title><path fill="#505977" d="M16 32C7.2 32 0 24.8 0 16S7.2 0 16 0s16 7.2 16 16-7.2 16-16 16zm0-30C8.3 2 2 8.3 2 16s6.3 14 14 14 14-6.3 14-14S23.7 2 16 2zm11 15c-.6 0-1-.4-1-1 0-5.5-4.5-10-10-10S6 10.5 6 16c0 .6-.4 1-1 1s-1-.4-1-1C4 9.4 9.4 4 16 4s12 5.4 12 12c0 .6-.4 1-1 1zm-11.3 5l2.7-12c.1-.5.7-.9 1.2-.7.5.1.9.7.8 1.2l-2.8 12.1c.8.4 1.4 1.3 1.4 2.4 0 1.7-1.3 3-3 3s-3-1.3-3-3c0-1.5 1.2-2.8 2.7-3zm.3 4c.6 0 1-.4 1-1s-.4-1-1-1-1 .4-1 1 .4 1 1 1z"/><path fill="#FFF" d="M16 64C7.2 64 0 56.8 0 48s7.2-16 16-16 16 7.2 16 16-7.2 16-16 16zm0-30C8.3 34 2 40.3 2 48s6.3 14 14 14 14-6.3 14-14-6.3-14-14-14zm11 15c-.6 0-1-.4-1-1 0-5.5-4.5-10-10-10S6 42.5 6 48c0 .6-.4 1-1 1s-1-.4-1-1c0-6.6 5.4-12 12-12s12 5.4 12 12c0 .6-.4 1-1 1zm-11.3 5l2.7-12c.1-.5.7-.9 1.2-.7.5.1.9.7.8 1.2l-2.8 12.1c.8.4 1.4 1.3 1.4 2.4 0 1.7-1.3 3-3 3s-3-1.3-3-3c0-1.5 1.2-2.8 2.7-3zm.3 4c.6 0 1-.4 1-1s-.4-1-1-1-1 .4-1 1 .4 1 1 1z"/></svg>